<svg width="1440" height="900" viewBox="0 0 1440 900" xmlns="http://www.w3.org/2000/svg" font-family="Sarabun, sans-serif"><defs>
<linearGradient id="gnavy" x1="0" y1="0" x2="0" y2="1"><stop offset="0" stop-color="#2A4A8F"/><stop offset="1" stop-color="#1A2F6B"/></linearGradient>
<linearGradient id="ggold" x1="0" y1="0" x2="0" y2="1"><stop offset="0" stop-color="#E8C96A"/><stop offset="1" stop-color="#C9A84C"/></linearGradient>
</defs><rect x="0" y="0" width="1440" height="900" fill="#F0F4FA" rx="0" /><rect x="260" y="0" width="1180" height="64" fill="#FFFFFF" rx="0" /><line x1="260" y1="64" x2="1440" y2="64" stroke="#E3E9F4"/><line x1="286" y1="26" x2="304" y2="26" stroke="#0D1B3E" stroke-width="2"/><line x1="286" y1="32" x2="304" y2="32" stroke="#0D1B3E" stroke-width="2"/><line x1="286" y1="38" x2="304" y2="38" stroke="#0D1B3E" stroke-width="2"/><text x="324" y="38" font-size="17" fill="#0D1B3E" font-weight="700" text-anchor="start">สารบบคดีปกครอง</text><rect x="950" y="14" width="240" height="36" fill="#FFFFFF" rx="8" stroke="#B8C4D8"/><circle cx="972" cy="32" r="6" fill="none" stroke="#6B7A99" stroke-width="1.6"/><line x1="976" y1="36" x2="982" y2="42" stroke="#6B7A99" stroke-width="1.6"/><text x="992" y="36" font-size="12" fill="#6B7A99" font-weight="400" text-anchor="start">ค้นหาทั่วทั้งระบบ…</text><path d="M1222 40h20l-2.5-4v-6a7.5 7.5 0 0 0-15 0v6Z" fill="none" stroke="#0D1B3E" stroke-width="1.8" stroke-linejoin="round"/><circle cx="1240" cy="22" r="8" fill="#C0392B"/><text x="1240" y="26" font-size="10" fill="#FFFFFF" font-weight="700" text-anchor="middle">4</text><line x1="1268" y1="18" x2="1268" y2="46" stroke="#E3E9F4"/><circle cx="1296" cy="32" r="16" fill="#2A4A8F"/><text x="1296" y="36" font-size="10" fill="#FFFFFF" font-weight="700" text-anchor="middle">ณพ</text><text x="1320" y="28" font-size="12" fill="#0D1B3E" font-weight="600" text-anchor="start">ณีรนุช พัฒนอำพันทอง</text><text x="1320" y="43" font-size="10.5" fill="#6B7A99" font-weight="400" text-anchor="start">นิติกร · กองกฎหมาย</text><rect x="0" y="0" width="260" height="900" fill="#0D1B3E" rx="0" /><circle cx="36" cy="32" r="16" fill="#C9A84C"/><text x="36" y="36" font-size="9" fill="#0D1B3E" font-weight="700" text-anchor="middle">ปปท</text><text x="62" y="30" font-size="17" fill="#FFFFFF" font-weight="700" text-anchor="start">E-CMIS</text><text x="62" y="45" font-size="9.5" fill="#B8C4D8" font-weight="400" text-anchor="start">สำนักงาน ป.ป.ท.</text><line x1="0" y1="64" x2="260" y2="64" stroke="#22345E"/><text x="20" y="92" font-size="10.5" fill="#B8C4D8" font-weight="600" text-anchor="start">งานกฎหมายในทางคดี</text><rect x="24" y="119" width="16" height="16" fill="#B8C4D8" rx="3" fill-opacity="0.45"/><text x="50" y="133" font-size="12.5" fill="#B8C4D8" font-weight="400" text-anchor="start">สำนวนคดีชั้นอัยการ/ศาล</text><rect x="24" y="165" width="16" height="16" fill="#B8C4D8" rx="3" fill-opacity="0.45"/><text x="50" y="179" font-size="12.5" fill="#B8C4D8" font-weight="400" text-anchor="start">คำร้องขอเปิดเผยข้อมูล</text><rect x="24" y="211" width="16" height="16" fill="#B8C4D8" rx="3" fill-opacity="0.45"/><text x="50" y="225" font-size="12.5" fill="#B8C4D8" font-weight="400" text-anchor="start">อุทธรณ์ไม่เปิดเผยข้อมูล</text><rect x="8" y="244" width="244" height="42" fill="#FFFFFF" rx="8" fill-opacity="0.09"/><rect x="8" y="244" width="4" height="42" fill="#C9A84C" rx="2" /><rect x="24" y="257" width="16" height="16" fill="#C9A84C" rx="3" fill-opacity="0.9"/><text x="50" y="271" font-size="12.5" fill="#FFFFFF" font-weight="600" text-anchor="start">คดีปกครอง</text><line x1="0" y1="298" x2="260" y2="298" stroke="#22345E"/><rect x="24" y="319" width="16" height="16" fill="#B8C4D8" rx="3" fill-opacity="0.3"/><text x="50" y="332" font-size="12.5" fill="#B8C4D8" font-weight="400" text-anchor="start">รายงานและสถิติ</text><rect x="24" y="365" width="16" height="16" fill="#B8C4D8" rx="3" fill-opacity="0.3"/><text x="50" y="378" font-size="12.5" fill="#B8C4D8" font-weight="400" text-anchor="start">สารบบกลาง</text><text x="284" y="88" font-size="11.5" fill="#6B7A99" font-weight="400" text-anchor="start">งานกฎหมายในทางคดี  ›  การจัดการและควบคุมงานคดีปกครอง</text><rect x="284" y="104" width="271" height="92" fill="#FFFFFF" rx="10" stroke="#E3E9F4"/><path d="M294 104h251a10 10 0 0 1 0 0" stroke="none"/><rect x="284" y="104" width="271" height="4" fill="#1A2F6B" rx="2" /><text x="300" y="132" font-size="12" fill="#6B7A99" font-weight="600" text-anchor="start">คดีปกครองทั้งหมด</text><text x="300" y="166" font-size="26" fill="#0D1B3E" font-weight="700" text-anchor="start">37</text><text x="300" y="184" font-size="10.5" fill="#6B7A99" font-weight="400" text-anchor="start">ชนะ 68% · แพ้ 22% · จำหน่าย 10%</text><rect x="571" y="104" width="271" height="92" fill="#FFFFFF" rx="10" stroke="#E3E9F4"/><path d="M581 104h251a10 10 0 0 1 0 0" stroke="none"/><rect x="571" y="104" width="271" height="4" fill="#D4630A" rx="2" /><text x="587" y="132" font-size="12" fill="#6B7A99" font-weight="600" text-anchor="start">พิจารณาชั้นต้น</text><text x="587" y="166" font-size="26" fill="#0D1B3E" font-weight="700" text-anchor="start">18</text><text x="587" y="184" font-size="10.5" fill="#6B7A99" font-weight="400" text-anchor="start">นัดหมายเดือนนี้ 5 คดี</text><rect x="858" y="104" width="271" height="92" fill="#FFFFFF" rx="10" stroke="#E3E9F4"/><path d="M868 104h251a10 10 0 0 1 0 0" stroke="none"/><rect x="858" y="104" width="271" height="4" fill="#0E7C7B" rx="2" /><text x="874" y="132" font-size="12" fill="#6B7A99" font-weight="600" text-anchor="start">พิจารณาชั้นสูงสุด</text><text x="874" y="166" font-size="26" fill="#0D1B3E" font-weight="700" text-anchor="start">7</text><text x="874" y="184" font-size="10.5" fill="#6B7A99" font-weight="400" text-anchor="start">อุทธรณ์โดย ป.ป.ท. 4 คดี</text><rect x="1145" y="104" width="271" height="92" fill="#FFFFFF" rx="10" stroke="#E3E9F4"/><path d="M1155 104h251a10 10 0 0 1 0 0" stroke="none"/><rect x="1145" y="104" width="271" height="4" fill="#C0392B" rx="2" /><text x="1161" y="132" font-size="12" fill="#6B7A99" font-weight="600" text-anchor="start">นัด/ครบกำหนดสัปดาห์นี้</text><text x="1161" y="166" font-size="26" fill="#C0392B" font-weight="700" text-anchor="start">3</text><text x="1161" y="184" font-size="10.5" fill="#6B7A99" font-weight="400" text-anchor="start">คลิกเพื่อกรองรายการ</text><rect x="284" y="216" width="1132" height="104" fill="#FFFFFF" rx="10" stroke="#E3E9F4"/><rect x="300" y="230" width="230" height="36" fill="#FFFFFF" rx="8" stroke="#B8C4D8"/><text x="312" y="253" font-size="12" fill="#6B7A99" font-weight="400" text-anchor="start">คดีดำ-แดง, ผู้ฟ้อง, ผู้ถูกฟ้อง…</text><circle cx="508" cy="247" r="5" fill="none" stroke="#B8C4D8" stroke-width="1.4"/><line x1="512" y1="251" x2="517" y2="256" stroke="#B8C4D8" stroke-width="1.4"/><rect x="542" y="230" width="125" height="36" fill="#FFFFFF" rx="8" stroke="#B8C4D8"/><text x="554" y="253" font-size="12" fill="#6B7A99" font-weight="400" text-anchor="start">ศาล: ทั้งหมด</text><text x="649" y="253" font-size="11" fill="#6B7A99" font-weight="400" text-anchor="start">▾</text><rect x="679" y="230" width="145" height="36" fill="#FFFFFF" rx="8" stroke="#B8C4D8"/><text x="691" y="253" font-size="12" fill="#6B7A99" font-weight="400" text-anchor="start">ประเภทคดี: ทั้งหมด</text><text x="806" y="253" font-size="11" fill="#6B7A99" font-weight="400" text-anchor="start">▾</text><rect x="836" y="230" width="160" height="36" fill="#FFFFFF" rx="8" stroke="#B8C4D8"/><text x="848" y="253" font-size="12" fill="#6B7A99" font-weight="400" text-anchor="start">สถานะทางคดี: ทั้งหมด</text><text x="978" y="253" font-size="11" fill="#6B7A99" font-weight="400" text-anchor="start">▾</text><rect x="1008" y="230" width="130" height="36" fill="#FFFFFF" rx="8" stroke="#B8C4D8"/><text x="1020" y="253" font-size="12" fill="#6B7A99" font-weight="400" text-anchor="start">นิติกร: ทั้งหมด</text><text x="1120" y="253" font-size="11" fill="#6B7A99" font-weight="400" text-anchor="start">▾</text><rect x="1150" y="230" width="130" height="36" fill="#FFFFFF" rx="8" stroke="#B8C4D8"/><text x="1162" y="253" font-size="12" fill="#6B7A99" font-weight="400" text-anchor="start">ปีงบประมาณ: 2569</text><text x="1262" y="253" font-size="11" fill="#6B7A99" font-weight="400" text-anchor="start">▾</text><rect x="300" y="280" width="235" height="36" fill="#FFFFFF" rx="8" stroke="#B8C4D8"/><text x="312" y="303" font-size="12" fill="#6B7A99" font-weight="400" text-anchor="start">วันที่รับหมาย: 1 ต.ค. 68 – 30 ก.ย. 69</text><rect x="509" y="290" width="14" height="16" fill="#B8C4D8" rx="2" fill-opacity="0.5"/><rect x="547" y="280.0" width="54.0" height="36" fill="url(#gnavy)" rx="6" /><text x="574.0" y="302" font-size="13" fill="#FFFFFF" font-weight="600" text-anchor="middle">ค้นหา</text><rect x="613.0" y="280.0" width="86.5" height="36" fill="#FFFFFF" rx="6" stroke="#1A2F6B" stroke-width="1.2"/><text x="656.25" y="302" font-size="13" fill="#1A2F6B" font-weight="600" text-anchor="middle">ล้างเงื่อนไข</text><rect x="1242.0" y="280.0" width="158.0" height="36" fill="url(#ggold)" rx="6" /><text x="1321.0" y="302" font-size="13" fill="#0D1B3E" font-weight="700" text-anchor="middle">+ รับหมายเรียก/คำสั่งศาล</text><rect x="284" y="336" width="1132" height="436" fill="#FFFFFF" rx="10" stroke="#E3E9F4"/><circle cx="304" cy="360" r="4" fill="#C9A84C"/><text x="316" y="365" font-size="14" fill="#0D1B3E" font-weight="700" text-anchor="start">รายการคดีปกครอง (LAW003)</text><rect x="1328.0" y="347.0" width="72.0" height="26" fill="#FFFFFF" rx="6" stroke="#1A2F6B" stroke-width="1.2"/><text x="1364.0" y="364" font-size="11" fill="#1A2F6B" font-weight="600" text-anchor="middle">Export ▾</text><text x="1314.0" y="364" font-size="10.5" fill="#6B7A99" font-weight="400" text-anchor="end">เชื่อมโยงมูลเหตุจากสารบบคดี ป.ป.ท. · กรองตามปีงบประมาณได้ (๑๐.๓.๑.๒)</text><rect x="285" y="384" width="1130" height="40" fill="#F4F7FC" rx="0" /><text x="300" y="409" font-size="11.5" fill="#1A2F6B" font-weight="700" text-anchor="start">คดีดำ / แดง</text><text x="404" y="409" font-size="11.5" fill="#1A2F6B" font-weight="700" text-anchor="start">ศาล</text><text x="532" y="409" font-size="11.5" fill="#1A2F6B" font-weight="700" text-anchor="start">ประเภท</text><text x="606" y="409" font-size="11.5" fill="#1A2F6B" font-weight="700" text-anchor="start">ผู้ฟ้อง / ผู้ถูกฟ้อง</text><text x="770" y="409" font-size="11.5" fill="#1A2F6B" font-weight="700" text-anchor="start">มูลเหตุ (สารบบ)</text><text x="882" y="409" font-size="11.5" fill="#1A2F6B" font-weight="700" text-anchor="start">นิติกร</text><text x="986" y="409" font-size="11.5" fill="#1A2F6B" font-weight="700" text-anchor="start">สถานะดำเนินการ</text><text x="1150" y="409" font-size="11.5" fill="#1A2F6B" font-weight="700" text-anchor="start">ผลคดี</text><text x="1236" y="409" font-size="11.5" fill="#1A2F6B" font-weight="700" text-anchor="start">นัดถัดไป</text><text x="1326" y="409" font-size="11.5" fill="#1A2F6B" font-weight="700" text-anchor="start">จัดการ</text><text x="300" y="444" font-size="11.5" fill="#0D1B3E" font-weight="400" text-anchor="start">บ 44/2569</text><text x="300" y="459" font-size="10.5" fill="#6B7A99" font-weight="400" text-anchor="start">–</text><text x="404" y="444" font-size="11.5" fill="#0D1B3E" font-weight="400" text-anchor="start">ศาลปกครองกลาง</text><text x="404" y="459" font-size="10.5" fill="#6B7A99" font-weight="400" text-anchor="start">–</text><rect x="532" y="435" width="47.6" height="22" fill="#0E7C7B" rx="11" fill-opacity="0.12"/><text x="555.8" y="450" font-size="11" fill="#0E7C7B" font-weight="600" text-anchor="middle">ชั้นต้น</text><text x="606" y="444" font-size="11.5" fill="#0D1B3E" font-weight="400" text-anchor="start">นายก้องภพ ฯ</text><text x="606" y="459" font-size="10.5" fill="#6B7A99" font-weight="400" text-anchor="start">ป.ป.ท. (ผู้ถูกฟ้อง)</text><rect x="770" y="437" width="14" height="18" fill="#F0F4FA" rx="2" stroke="#6B7A99"/><text x="790" y="450" font-size="11" fill="#3B6CC7" font-weight="600" text-anchor="start">ปปท.87/67</text><circle cx="892" cy="446" r="10" fill="#F0F4FA" stroke="#B8C4D8"/><text x="892" y="449.5" font-size="9" fill="#1A2F6B" font-weight="700" text-anchor="middle">ว</text><text x="908" y="450" font-size="11.5" fill="#0D1B3E" font-weight="400" text-anchor="start">วรรณา</text><rect x="986" y="435" width="130.4" height="22" fill="#0E7C7B" rx="11" fill-opacity="0.12"/><text x="1051.2" y="450" font-size="11" fill="#0E7C7B" font-weight="600" text-anchor="middle">เสนอบอร์ดมอบอำนาจ</text><text x="1150" y="450" font-size="12" fill="#0D1B3E" font-weight="400" text-anchor="start">–</text><text x="1236" y="450" font-size="12" fill="#C0392B" font-weight="700" text-anchor="start">6 ก.ค. 69</text><rect x="1326" y="433.0" width="26.5" height="26" fill="#FFFFFF" rx="6" stroke="#1A2F6B" stroke-width="1.2"/><text x="1339.25" y="450" font-size="11" fill="#1A2F6B" font-weight="600" text-anchor="middle">ดู</text><line x1="285" y1="468" x2="1415" y2="468" stroke="#ECF1F8"/><text x="300" y="488" font-size="11.5" fill="#0D1B3E" font-weight="400" text-anchor="start">บ 41/2569</text><text x="300" y="503" font-size="10.5" fill="#6B7A99" font-weight="400" text-anchor="start">–</text><text x="404" y="488" font-size="11.5" fill="#0D1B3E" font-weight="400" text-anchor="start">ศาลปกครอง</text><text x="404" y="503" font-size="10.5" fill="#6B7A99" font-weight="400" text-anchor="start">นครราชสีมา</text><rect x="532" y="479" width="47.6" height="22" fill="#0E7C7B" rx="11" fill-opacity="0.12"/><text x="555.8" y="494" font-size="11" fill="#0E7C7B" font-weight="600" text-anchor="middle">ชั้นต้น</text><text x="606" y="488" font-size="11.5" fill="#0D1B3E" font-weight="400" text-anchor="start">นางมาลี ฯ + ผู้ร้องสอด 1</text><text x="606" y="503" font-size="10.5" fill="#6B7A99" font-weight="400" text-anchor="start">ป.ป.ท. (ผู้ถูกฟ้อง)</text><rect x="770" y="481" width="14" height="18" fill="#F0F4FA" rx="2" stroke="#6B7A99"/><text x="790" y="494" font-size="11" fill="#3B6CC7" font-weight="600" text-anchor="start">ปปท.72/67</text><circle cx="892" cy="490" r="10" fill="#F0F4FA" stroke="#B8C4D8"/><text x="892" y="493.5" font-size="9" fill="#1A2F6B" font-weight="700" text-anchor="middle">ธ</text><text x="908" y="494" font-size="11.5" fill="#0D1B3E" font-weight="400" text-anchor="start">ธนกร</text><rect x="986" y="479" width="130.4" height="22" fill="#D4630A" rx="11" fill-opacity="0.12"/><text x="1051.2" y="494" font-size="11" fill="#D4630A" font-weight="600" text-anchor="middle">อยู่ระหว่างกลุ่มงานคดี</text><text x="1150" y="494" font-size="12" fill="#0D1B3E" font-weight="400" text-anchor="start">–</text><text x="1236" y="494" font-size="12" fill="#0D1B3E" font-weight="400" text-anchor="start">21 ก.ค. 69</text><rect x="1326" y="477.0" width="26.5" height="26" fill="#FFFFFF" rx="6" stroke="#1A2F6B" stroke-width="1.2"/><text x="1339.25" y="494" font-size="11" fill="#1A2F6B" font-weight="600" text-anchor="middle">ดู</text><line x1="285" y1="512" x2="1415" y2="512" stroke="#ECF1F8"/><text x="300" y="532" font-size="11.5" fill="#0D1B3E" font-weight="400" text-anchor="start">บ 38/2569</text><text x="300" y="547" font-size="10.5" fill="#6B7A99" font-weight="400" text-anchor="start">–</text><text x="404" y="532" font-size="11.5" fill="#0D1B3E" font-weight="400" text-anchor="start">ศาลปกครองกลาง</text><text x="404" y="547" font-size="10.5" fill="#6B7A99" font-weight="400" text-anchor="start">–</text><rect x="532" y="523" width="47.6" height="22" fill="#0E7C7B" rx="11" fill-opacity="0.12"/><text x="555.8" y="538" font-size="11" fill="#0E7C7B" font-weight="600" text-anchor="middle">ชั้นต้น</text><text x="606" y="532" font-size="11.5" fill="#0D1B3E" font-weight="400" text-anchor="start">นายสมหมาย ฯ</text><text x="606" y="547" font-size="10.5" fill="#6B7A99" font-weight="400" text-anchor="start">ป.ป.ท. (ผู้ถูกฟ้อง)</text><rect x="770" y="525" width="14" height="18" fill="#F0F4FA" rx="2" stroke="#6B7A99"/><text x="790" y="538" font-size="11" fill="#3B6CC7" font-weight="600" text-anchor="start">ปปท.66/66</text><circle cx="892" cy="534" r="10" fill="#F0F4FA" stroke="#B8C4D8"/><text x="892" y="537.5" font-size="9" fill="#1A2F6B" font-weight="700" text-anchor="middle">อ</text><text x="908" y="538" font-size="11.5" fill="#0D1B3E" font-weight="400" text-anchor="start">อรทัย</text><rect x="986" y="523" width="116.60000000000001" height="22" fill="#1B7A4A" rx="11" fill-opacity="0.12"/><text x="1044.3" y="538" font-size="11" fill="#1B7A4A" font-weight="600" text-anchor="middle">ส่งสำนวนให้อัยการ</text><text x="1150" y="538" font-size="12" fill="#0D1B3E" font-weight="400" text-anchor="start">–</text><text x="1236" y="538" font-size="12" fill="#0D1B3E" font-weight="400" text-anchor="start">รอนัดแรก</text><rect x="1326" y="521.0" width="26.5" height="26" fill="#FFFFFF" rx="6" stroke="#1A2F6B" stroke-width="1.2"/><text x="1339.25" y="538" font-size="11" fill="#1A2F6B" font-weight="600" text-anchor="middle">ดู</text><line x1="285" y1="556" x2="1415" y2="556" stroke="#ECF1F8"/><text x="300" y="576" font-size="11.5" fill="#0D1B3E" font-weight="400" text-anchor="start">อ 12/2568</text><text x="300" y="591" font-size="10.5" fill="#6B7A99" font-weight="400" text-anchor="start">อ 03/69</text><text x="404" y="576" font-size="11.5" fill="#0D1B3E" font-weight="400" text-anchor="start">ศาลปกครองสูงสุด</text><text x="404" y="591" font-size="10.5" fill="#6B7A99" font-weight="400" text-anchor="start">–</text><rect x="532" y="567" width="47.6" height="22" fill="#1A2F6B" rx="11" fill-opacity="0.12"/><text x="555.8" y="582" font-size="11" fill="#1A2F6B" font-weight="600" text-anchor="middle">สูงสุด</text><text x="606" y="576" font-size="11.5" fill="#0D1B3E" font-weight="400" text-anchor="start">ป.ป.ท. (ผู้ฟ้อง)</text><text x="606" y="591" font-size="10.5" fill="#6B7A99" font-weight="400" text-anchor="start">นายชูชาติ ฯ</text><rect x="770" y="569" width="14" height="18" fill="#F0F4FA" rx="2" stroke="#6B7A99"/><text x="790" y="582" font-size="11" fill="#3B6CC7" font-weight="600" text-anchor="start">ปปท.51/66</text><circle cx="892" cy="578" r="10" fill="#F0F4FA" stroke="#B8C4D8"/><text x="892" y="581.5" font-size="9" fill="#1A2F6B" font-weight="700" text-anchor="middle">ว</text><text x="908" y="582" font-size="11.5" fill="#0D1B3E" font-weight="400" text-anchor="start">วรรณา</text><rect x="986" y="567" width="116.60000000000001" height="22" fill="#D4630A" rx="11" fill-opacity="0.12"/><text x="1044.3" y="582" font-size="11" fill="#D4630A" font-weight="600" text-anchor="middle">อยู่ระหว่างพิจารณา</text><text x="1150" y="582" font-size="12" fill="#0D1B3E" font-weight="400" text-anchor="start">–</text><text x="1236" y="582" font-size="12" fill="#0D1B3E" font-weight="400" text-anchor="start">แถลงปิดคดี</text><rect x="1326" y="565.0" width="26.5" height="26" fill="#FFFFFF" rx="6" stroke="#1A2F6B" stroke-width="1.2"/><text x="1339.25" y="582" font-size="11" fill="#1A2F6B" font-weight="600" text-anchor="middle">ดู</text><line x1="285" y1="600" x2="1415" y2="600" stroke="#ECF1F8"/><text x="300" y="620" font-size="11.5" fill="#0D1B3E" font-weight="400" text-anchor="start">บ 29/2568</text><text x="300" y="635" font-size="10.5" fill="#6B7A99" font-weight="400" text-anchor="start">บ 88/68</text><text x="404" y="620" font-size="11.5" fill="#0D1B3E" font-weight="400" text-anchor="start">ศาลปกครอง</text><text x="404" y="635" font-size="10.5" fill="#6B7A99" font-weight="400" text-anchor="start">เชียงใหม่</text><rect x="532" y="611" width="47.6" height="22" fill="#0E7C7B" rx="11" fill-opacity="0.12"/><text x="555.8" y="626" font-size="11" fill="#0E7C7B" font-weight="600" text-anchor="middle">ชั้นต้น</text><text x="606" y="620" font-size="11.5" fill="#0D1B3E" font-weight="400" text-anchor="start">นายบุญส่ง ฯ</text><text x="606" y="635" font-size="10.5" fill="#6B7A99" font-weight="400" text-anchor="start">ป.ป.ท. (ผู้ถูกฟ้อง)</text><rect x="770" y="613" width="14" height="18" fill="#F0F4FA" rx="2" stroke="#6B7A99"/><text x="790" y="626" font-size="11" fill="#3B6CC7" font-weight="600" text-anchor="start">ปปท.43/65</text><circle cx="892" cy="622" r="10" fill="#F0F4FA" stroke="#B8C4D8"/><text x="892" y="625.5" font-size="9" fill="#1A2F6B" font-weight="700" text-anchor="middle">ศ</text><text x="908" y="626" font-size="11.5" fill="#0D1B3E" font-weight="400" text-anchor="start">ศิริพร</text><rect x="986" y="611" width="68.30000000000001" height="22" fill="#1B7A4A" rx="11" fill-opacity="0.12"/><text x="1020.15" y="626" font-size="11" fill="#1B7A4A" font-weight="600" text-anchor="middle">คดีถึงที่สุด</text><rect x="1150" y="611" width="54.5" height="22" fill="#1B7A4A" rx="11" fill-opacity="0.12"/><text x="1177.25" y="626" font-size="11" fill="#1B7A4A" font-weight="600" text-anchor="middle">ชนะคดี</text><text x="1236" y="626" font-size="12" fill="#0D1B3E" font-weight="400" text-anchor="start">–</text><rect x="1326" y="609.0" width="26.5" height="26" fill="#FFFFFF" rx="6" stroke="#1A2F6B" stroke-width="1.2"/><text x="1339.25" y="626" font-size="11" fill="#1A2F6B" font-weight="600" text-anchor="middle">ดู</text><line x1="285" y1="644" x2="1415" y2="644" stroke="#ECF1F8"/><text x="300" y="664" font-size="11.5" fill="#0D1B3E" font-weight="400" text-anchor="start">บ 22/2568</text><text x="300" y="679" font-size="10.5" fill="#6B7A99" font-weight="400" text-anchor="start">บ 71/68</text><text x="404" y="664" font-size="11.5" fill="#0D1B3E" font-weight="400" text-anchor="start">ศาลปกครองกลาง</text><text x="404" y="679" font-size="10.5" fill="#6B7A99" font-weight="400" text-anchor="start">–</text><rect x="532" y="655" width="47.6" height="22" fill="#0E7C7B" rx="11" fill-opacity="0.12"/><text x="555.8" y="670" font-size="11" fill="#0E7C7B" font-weight="600" text-anchor="middle">ชั้นต้น</text><text x="606" y="664" font-size="11.5" fill="#0D1B3E" font-weight="400" text-anchor="start">น.ส.เพ็ญศรี ฯ</text><text x="606" y="679" font-size="10.5" fill="#6B7A99" font-weight="400" text-anchor="start">ป.ป.ท. (ผู้ถูกฟ้อง)</text><rect x="770" y="657" width="14" height="18" fill="#F0F4FA" rx="2" stroke="#6B7A99"/><text x="790" y="670" font-size="11" fill="#3B6CC7" font-weight="600" text-anchor="start">ปปท.38/65</text><circle cx="892" cy="666" r="10" fill="#F0F4FA" stroke="#B8C4D8"/><text x="892" y="669.5" font-size="9" fill="#1A2F6B" font-weight="700" text-anchor="middle">ธ</text><text x="908" y="670" font-size="11.5" fill="#0D1B3E" font-weight="400" text-anchor="start">ธนกร</text><rect x="986" y="655" width="109.7" height="22" fill="#C0392B" rx="11" fill-opacity="0.12"/><text x="1040.85" y="670" font-size="11" fill="#C0392B" font-weight="600" text-anchor="middle">ครบกำหนดอุทธรณ์</text><rect x="1150" y="655" width="47.6" height="22" fill="#C0392B" rx="11" fill-opacity="0.12"/><text x="1173.8" y="670" font-size="11" fill="#C0392B" font-weight="600" text-anchor="middle">แพ้คดี</text><text x="1236" y="670" font-size="12" fill="#C0392B" font-weight="700" text-anchor="start">9 ก.ค. 69</text><rect x="1326" y="653.0" width="26.5" height="26" fill="#FFFFFF" rx="6" stroke="#1A2F6B" stroke-width="1.2"/><text x="1339.25" y="670" font-size="11" fill="#1A2F6B" font-weight="600" text-anchor="middle">ดู</text><line x1="285" y1="688" x2="1415" y2="688" stroke="#ECF1F8"/><text x="300" y="708" font-size="11.5" fill="#0D1B3E" font-weight="400" text-anchor="start">บ 17/2567</text><text x="300" y="723" font-size="10.5" fill="#6B7A99" font-weight="400" text-anchor="start">บ 52/67</text><text x="404" y="708" font-size="11.5" fill="#0D1B3E" font-weight="400" text-anchor="start">ศาลปกครอง</text><text x="404" y="723" font-size="10.5" fill="#6B7A99" font-weight="400" text-anchor="start">ขอนแก่น</text><rect x="532" y="699" width="47.6" height="22" fill="#0E7C7B" rx="11" fill-opacity="0.12"/><text x="555.8" y="714" font-size="11" fill="#0E7C7B" font-weight="600" text-anchor="middle">ชั้นต้น</text><text x="606" y="708" font-size="11.5" fill="#0D1B3E" font-weight="400" text-anchor="start">นายอดุลย์ ฯ</text><text x="606" y="723" font-size="10.5" fill="#6B7A99" font-weight="400" text-anchor="start">ป.ป.ท. (ผู้ถูกฟ้อง)</text><rect x="770" y="701" width="14" height="18" fill="#F0F4FA" rx="2" stroke="#6B7A99"/><text x="790" y="714" font-size="11" fill="#3B6CC7" font-weight="600" text-anchor="start">ปปท.29/64</text><circle cx="892" cy="710" r="10" fill="#F0F4FA" stroke="#B8C4D8"/><text x="892" y="713.5" font-size="9" fill="#1A2F6B" font-weight="700" text-anchor="middle">อ</text><text x="908" y="714" font-size="11.5" fill="#0D1B3E" font-weight="400" text-anchor="start">อรทัย</text><rect x="986" y="699" width="75.2" height="22" fill="#0E7C7B" rx="11" fill-opacity="0.12"/><text x="1023.6" y="714" font-size="11" fill="#0E7C7B" font-weight="600" text-anchor="middle">จำหน่ายคดี</text><text x="1150" y="714" font-size="12" fill="#0D1B3E" font-weight="400" text-anchor="start">–</text><text x="1236" y="714" font-size="12" fill="#0D1B3E" font-weight="400" text-anchor="start">–</text><rect x="1326" y="697.0" width="26.5" height="26" fill="#FFFFFF" rx="6" stroke="#1A2F6B" stroke-width="1.2"/><text x="1339.25" y="714" font-size="11" fill="#1A2F6B" font-weight="600" text-anchor="middle">ดู</text><line x1="285" y1="732" x2="1415" y2="732" stroke="#ECF1F8"/><text x="300" y="758" font-size="11" fill="#6B7A99" font-weight="400" text-anchor="start">แสดง 1–7 จากทั้งหมด 37 รายการ</text><rect x="1330" y="742" width="24" height="24" fill="#1A2F6B" rx="6" /><text x="1342" y="758" font-size="11" fill="#FFFFFF" font-weight="600" text-anchor="middle">1</text><rect x="1360" y="742" width="24" height="24" fill="#FFFFFF" rx="6" stroke="#B8C4D8"/><text x="1372" y="758" font-size="11" fill="#6B7A99" font-weight="600" text-anchor="middle">2</text><rect x="1390" y="742" width="24" height="24" fill="#FFFFFF" rx="6" stroke="#B8C4D8"/><text x="1402" y="758" font-size="11" fill="#6B7A99" font-weight="600" text-anchor="middle">3</text><rect x="1420" y="742" width="24" height="24" fill="#FFFFFF" rx="6" stroke="#B8C4D8"/><text x="1432" y="758" font-size="11" fill="#6B7A99" font-weight="600" text-anchor="middle">…</text></svg>